<mxfile host="app.diagrams.net" modified="2021-05-23T16:28:35.042Z" agent="5.0 (Macintosh; Intel Mac OS X 10_15_7) AppleWebKit/605.1.15 (KHTML, like Gecko) Version/14.1 Safari/605.1.15" etag="meguW8LxojHB9T4B_iG2" version="14.7.0" type="github">
  <diagram name="Page-1" id="19d8dcba-68ad-dc05-1034-9cf7b2a963f6">
    <mxGraphModel dx="1252" dy="894" grid="1" gridSize="10" guides="1" tooltips="1" connect="1" arrows="1" fold="1" page="1" pageScale="1" pageWidth="1169" pageHeight="827" background="#182E3E" math="0" shadow="0">
      <root>
        <mxCell id="0" />
        <mxCell id="1" parent="0" />
        <mxCell id="U8TuBQ-byBsgShoGQyeG-1" value="CLOVER GLOVE" style="whiteSpace=wrap;html=1;fillColor=#EEEEEE;strokeColor=#FFFFFF;fontColor=#1A1A1A;" vertex="1" parent="1">
          <mxGeometry x="452" y="20" width="220" height="50" as="geometry" />
        </mxCell>
        <mxCell id="U8TuBQ-byBsgShoGQyeG-4" value="" style="endArrow=classic;html=1;exitX=0.5;exitY=1;exitDx=0;exitDy=0;entryX=0.5;entryY=0;entryDx=0;entryDy=0;strokeColor=#FFFFFF;fontColor=#FFFFFF;labelBackgroundColor=#182E3E;" edge="1" parent="1">
          <mxGeometry width="50" height="50" relative="1" as="geometry">
            <mxPoint x="562" y="70" as="sourcePoint" />
            <mxPoint x="562" y="120" as="targetPoint" />
          </mxGeometry>
        </mxCell>
        <mxCell id="U8TuBQ-byBsgShoGQyeG-38" style="edgeStyle=orthogonalEdgeStyle;orthogonalLoop=1;jettySize=auto;html=1;strokeColor=#FFFFFF;fontColor=#FFFFFF;labelBackgroundColor=#182E3E;" edge="1" parent="1">
          <mxGeometry relative="1" as="geometry">
            <mxPoint x="562" y="240" as="targetPoint" />
            <mxPoint x="562" y="180" as="sourcePoint" />
          </mxGeometry>
        </mxCell>
        <mxCell id="U8TuBQ-byBsgShoGQyeG-8" value="" style="endArrow=classic;startArrow=classic;html=1;entryX=0.5;entryY=0;entryDx=0;entryDy=0;strokeColor=#FFFFFF;fontColor=#FFFFFF;labelBackgroundColor=#182E3E;" edge="1" parent="1" target="U8TuBQ-byBsgShoGQyeG-21">
          <mxGeometry width="50" height="50" relative="1" as="geometry">
            <mxPoint x="108" y="340" as="sourcePoint" />
            <mxPoint x="1058" y="340" as="targetPoint" />
            <Array as="points">
              <mxPoint x="108" y="240" />
              <mxPoint x="578" y="240" />
              <mxPoint x="1080" y="240" />
            </Array>
          </mxGeometry>
        </mxCell>
        <mxCell id="U8TuBQ-byBsgShoGQyeG-9" value="MNC" style="whiteSpace=wrap;html=1;fillColor=#EEEEEE;strokeColor=#FFFFFF;fontColor=#1A1A1A;" vertex="1" parent="1">
          <mxGeometry x="58" y="380" width="96.8" height="22" as="geometry" />
        </mxCell>
        <mxCell id="U8TuBQ-byBsgShoGQyeG-14" value="" style="shape=actor;whiteSpace=wrap;html=1;fillColor=#EEEEEE;strokeColor=#FFFFFF;fontColor=#1A1A1A;" vertex="1" parent="1">
          <mxGeometry x="91.39999999999998" y="340" width="30" height="40" as="geometry" />
        </mxCell>
        <mxCell id="U8TuBQ-byBsgShoGQyeG-18" value="APRIL" style="whiteSpace=wrap;html=1;fillColor=#EEEEEE;strokeColor=#FFFFFF;fontColor=#1A1A1A;" vertex="1" parent="1">
          <mxGeometry x="390" y="300" width="96.8" height="22" as="geometry" />
        </mxCell>
        <mxCell id="U8TuBQ-byBsgShoGQyeG-19" value="" style="shape=actor;whiteSpace=wrap;html=1;fillColor=#EEEEEE;strokeColor=#FFFFFF;fontColor=#1A1A1A;" vertex="1" parent="1">
          <mxGeometry x="422.4" y="260" width="30" height="40" as="geometry" />
        </mxCell>
        <mxCell id="U8TuBQ-byBsgShoGQyeG-20" value="SRIMUANG" style="whiteSpace=wrap;html=1;fillColor=#EEEEEE;strokeColor=#FFFFFF;fontColor=#1A1A1A;" vertex="1" parent="1">
          <mxGeometry x="1033" y="380" width="96.8" height="22" as="geometry" />
        </mxCell>
        <mxCell id="U8TuBQ-byBsgShoGQyeG-21" value="" style="shape=actor;whiteSpace=wrap;html=1;fillColor=#EEEEEE;strokeColor=#FFFFFF;fontColor=#1A1A1A;" vertex="1" parent="1">
          <mxGeometry x="1066.4" y="340" width="30" height="40" as="geometry" />
        </mxCell>
        <mxCell id="U8TuBQ-byBsgShoGQyeG-22" value="" style="endArrow=classic;html=1;strokeColor=#FFFFFF;fontColor=#FFFFFF;labelBackgroundColor=#182E3E;" edge="1" parent="1">
          <mxGeometry width="50" height="50" relative="1" as="geometry">
            <mxPoint x="802" y="240" as="sourcePoint" />
            <mxPoint x="802" y="300" as="targetPoint" />
          </mxGeometry>
        </mxCell>
        <mxCell id="U8TuBQ-byBsgShoGQyeG-24" value="" style="endArrow=classic;html=1;strokeColor=#FFFFFF;fontColor=#FFFFFF;labelBackgroundColor=#182E3E;" edge="1" parent="1">
          <mxGeometry width="50" height="50" relative="1" as="geometry">
            <mxPoint x="314.8" y="240" as="sourcePoint" />
            <mxPoint x="314.8" y="300" as="targetPoint" />
          </mxGeometry>
        </mxCell>
        <mxCell id="U8TuBQ-byBsgShoGQyeG-25" value="" style="endArrow=classic;html=1;strokeColor=#FFFFFF;fontColor=#FFFFFF;labelBackgroundColor=#182E3E;" edge="1" parent="1">
          <mxGeometry width="50" height="50" relative="1" as="geometry">
            <mxPoint x="196" y="240" as="sourcePoint" />
            <mxPoint x="196" y="300" as="targetPoint" />
          </mxGeometry>
        </mxCell>
        <mxCell id="U8TuBQ-byBsgShoGQyeG-26" value="RE Glove" style="whiteSpace=wrap;html=1;fillColor=#EEEEEE;strokeColor=#FFFFFF;fontColor=#1A1A1A;" vertex="1" parent="1">
          <mxGeometry x="148" y="340" width="96.8" height="22" as="geometry" />
        </mxCell>
        <mxCell id="U8TuBQ-byBsgShoGQyeG-27" value="" style="shape=actor;whiteSpace=wrap;html=1;fillColor=#EEEEEE;strokeColor=#FFFFFF;fontColor=#1A1A1A;" vertex="1" parent="1">
          <mxGeometry x="181.39999999999998" y="300" width="30" height="40" as="geometry" />
        </mxCell>
        <mxCell id="U8TuBQ-byBsgShoGQyeG-28" value="42 Glove" style="whiteSpace=wrap;html=1;fillColor=#EEEEEE;strokeColor=#FFFFFF;fontColor=#1A1A1A;" vertex="1" parent="1">
          <mxGeometry x="268" y="340" width="96.8" height="22" as="geometry" />
        </mxCell>
        <mxCell id="U8TuBQ-byBsgShoGQyeG-29" value="" style="shape=actor;whiteSpace=wrap;html=1;fillColor=#EEEEEE;strokeColor=#FFFFFF;fontColor=#1A1A1A;" vertex="1" parent="1">
          <mxGeometry x="300.4" y="300" width="30" height="40" as="geometry" />
        </mxCell>
        <mxCell id="U8TuBQ-byBsgShoGQyeG-30" value="MSCS" style="whiteSpace=wrap;html=1;fillColor=#EEEEEE;strokeColor=#FFFFFF;fontColor=#1A1A1A;" vertex="1" parent="1">
          <mxGeometry x="753" y="340" width="96.8" height="22" as="geometry" />
        </mxCell>
        <mxCell id="U8TuBQ-byBsgShoGQyeG-31" value="" style="shape=actor;whiteSpace=wrap;html=1;fillColor=#EEEEEE;strokeColor=#FFFFFF;fontColor=#1A1A1A;" vertex="1" parent="1">
          <mxGeometry x="787.4" y="300" width="30" height="40" as="geometry" />
        </mxCell>
        <mxCell id="U8TuBQ-byBsgShoGQyeG-42" value="" style="endArrow=classic;html=1;entryX=0.5;entryY=0;entryDx=0;entryDy=0;strokeColor=#FFFFFF;fontColor=#FFFFFF;labelBackgroundColor=#182E3E;" edge="1" parent="1" target="U8TuBQ-byBsgShoGQyeG-19">
          <mxGeometry width="50" height="50" relative="1" as="geometry">
            <mxPoint x="437" y="240" as="sourcePoint" />
            <mxPoint x="417" y="230" as="targetPoint" />
          </mxGeometry>
        </mxCell>
        <mxCell id="U8TuBQ-byBsgShoGQyeG-43" value="TIFANNY" style="whiteSpace=wrap;html=1;fillColor=#EEEEEE;strokeColor=#FFFFFF;fontColor=#1A1A1A;" vertex="1" parent="1">
          <mxGeometry x="628" y="299" width="96.8" height="22" as="geometry" />
        </mxCell>
        <mxCell id="U8TuBQ-byBsgShoGQyeG-44" value="" style="shape=actor;whiteSpace=wrap;html=1;fillColor=#EEEEEE;strokeColor=#FFFFFF;fontColor=#1A1A1A;" vertex="1" parent="1">
          <mxGeometry x="660.4" y="259" width="30" height="40" as="geometry" />
        </mxCell>
        <mxCell id="U8TuBQ-byBsgShoGQyeG-45" value="" style="endArrow=classic;html=1;entryX=0.5;entryY=0;entryDx=0;entryDy=0;strokeColor=#FFFFFF;fontColor=#FFFFFF;labelBackgroundColor=#182E3E;" edge="1" parent="1" target="U8TuBQ-byBsgShoGQyeG-44">
          <mxGeometry width="50" height="50" relative="1" as="geometry">
            <mxPoint x="675" y="239" as="sourcePoint" />
            <mxPoint x="655" y="229" as="targetPoint" />
          </mxGeometry>
        </mxCell>
        <mxCell id="U8TuBQ-byBsgShoGQyeG-47" value="" style="endArrow=classic;html=1;strokeColor=#FFFFFF;fontColor=#FFFFFF;labelBackgroundColor=#182E3E;" edge="1" parent="1">
          <mxGeometry width="50" height="50" relative="1" as="geometry">
            <mxPoint x="960" y="240" as="sourcePoint" />
            <mxPoint x="960" y="300" as="targetPoint" />
          </mxGeometry>
        </mxCell>
        <mxCell id="U8TuBQ-byBsgShoGQyeG-48" value="GIMS" style="whiteSpace=wrap;html=1;fillColor=#EEEEEE;strokeColor=#FFFFFF;fontColor=#1A1A1A;" vertex="1" parent="1">
          <mxGeometry x="912" y="340" width="96.8" height="22" as="geometry" />
        </mxCell>
        <mxCell id="U8TuBQ-byBsgShoGQyeG-49" value="" style="shape=actor;whiteSpace=wrap;html=1;fillColor=#EEEEEE;strokeColor=#FFFFFF;fontColor=#1A1A1A;" vertex="1" parent="1">
          <mxGeometry x="945.4" y="300" width="30" height="40" as="geometry" />
        </mxCell>
        <mxCell id="U8TuBQ-byBsgShoGQyeG-50" value="SAVEMED" style="whiteSpace=wrap;html=1;fillColor=#EEEEEE;strokeColor=#FFFFFF;fontColor=#1A1A1A;" vertex="1" parent="1">
          <mxGeometry x="513.6" y="340" width="96.8" height="22" as="geometry" />
        </mxCell>
        <mxCell id="U8TuBQ-byBsgShoGQyeG-51" value="" style="shape=actor;whiteSpace=wrap;html=1;fillColor=#EEEEEE;strokeColor=#FFFFFF;fontColor=#1A1A1A;" vertex="1" parent="1">
          <mxGeometry x="546" y="300" width="30" height="40" as="geometry" />
        </mxCell>
        <mxCell id="U8TuBQ-byBsgShoGQyeG-52" value="" style="endArrow=classic;html=1;entryX=0.5;entryY=0;entryDx=0;entryDy=0;strokeColor=#FFFFFF;fontColor=#FFFFFF;labelBackgroundColor=#182E3E;" edge="1" parent="1" target="U8TuBQ-byBsgShoGQyeG-51">
          <mxGeometry width="50" height="50" relative="1" as="geometry">
            <mxPoint x="560.6" y="238" as="sourcePoint" />
            <mxPoint x="540.6" y="228" as="targetPoint" />
          </mxGeometry>
        </mxCell>
        <mxCell id="U8TuBQ-byBsgShoGQyeG-58" value="BUY" style="shape=step;perimeter=stepPerimeter;fixedSize=1;points=[];fillColor=#EEEEEE;strokeColor=#FFFFFF;fontColor=#1A1A1A;" vertex="1" parent="1">
          <mxGeometry x="158" y="80" width="100" height="57" as="geometry" />
        </mxCell>
        <mxCell id="U8TuBQ-byBsgShoGQyeG-59" value="SELL" style="shape=step;perimeter=stepPerimeter;fixedSize=1;points=[];fillColor=#EEEEEE;strokeColor=#FFFFFF;fontColor=#1A1A1A;" vertex="1" parent="1">
          <mxGeometry x="246" y="80" width="100" height="57" as="geometry" />
        </mxCell>
        <mxCell id="U8TuBQ-byBsgShoGQyeG-57" value="OEM" style="shape=step;perimeter=stepPerimeter;fixedSize=1;points=[];fillColor=#EEEEEE;strokeColor=#FFFFFF;fontColor=#1A1A1A;" vertex="1" parent="1">
          <mxGeometry x="70" y="80" width="100" height="57" as="geometry" />
        </mxCell>
        <mxCell id="U8TuBQ-byBsgShoGQyeG-62" value="Invest&amp;nbsp;&lt;br&gt;100,000 Baht" style="endArrow=classic;html=1;exitX=0.5;exitY=1;exitDx=0;exitDy=0;strokeColor=#FFFFFF;fontColor=#FFFFFF;labelBackgroundColor=#182E3E;" edge="1" parent="1" source="U8TuBQ-byBsgShoGQyeG-9">
          <mxGeometry width="50" height="50" relative="1" as="geometry">
            <mxPoint x="106" y="410" as="sourcePoint" />
            <mxPoint x="106" y="540" as="targetPoint" />
          </mxGeometry>
        </mxCell>
        <mxCell id="U8TuBQ-byBsgShoGQyeG-63" value="Invest&amp;nbsp;&lt;br&gt;100,000 Baht" style="endArrow=classic;html=1;exitX=0.5;exitY=1;exitDx=0;exitDy=0;entryX=0.5;entryY=0;entryDx=0;entryDy=0;strokeColor=#FFFFFF;fontColor=#FFFFFF;labelBackgroundColor=#182E3E;" edge="1" parent="1" target="U8TuBQ-byBsgShoGQyeG-78">
          <mxGeometry width="50" height="50" relative="1" as="geometry">
            <mxPoint x="197.3800000000001" y="362" as="sourcePoint" />
            <mxPoint x="197" y="540" as="targetPoint" />
          </mxGeometry>
        </mxCell>
        <mxCell id="U8TuBQ-byBsgShoGQyeG-64" value="Invest&amp;nbsp;&lt;br&gt;100,000 Baht" style="endArrow=classic;html=1;exitX=0.5;exitY=1;exitDx=0;exitDy=0;strokeColor=#FFFFFF;fontColor=#FFFFFF;labelBackgroundColor=#182E3E;" edge="1" parent="1">
          <mxGeometry width="50" height="50" relative="1" as="geometry">
            <mxPoint x="316.3800000000001" y="362" as="sourcePoint" />
            <mxPoint x="316" y="540" as="targetPoint" />
          </mxGeometry>
        </mxCell>
        <mxCell id="U8TuBQ-byBsgShoGQyeG-65" value="Invest&amp;nbsp;&lt;br&gt;100,000 Baht" style="endArrow=classic;html=1;exitX=0.5;exitY=1;exitDx=0;exitDy=0;entryX=0.492;entryY=0;entryDx=0;entryDy=0;entryPerimeter=0;strokeColor=#FFFFFF;fontColor=#FFFFFF;labelBackgroundColor=#182E3E;" edge="1" parent="1" target="U8TuBQ-byBsgShoGQyeG-80">
          <mxGeometry width="50" height="50" relative="1" as="geometry">
            <mxPoint x="438.3800000000001" y="322" as="sourcePoint" />
            <mxPoint x="438" y="540" as="targetPoint" />
          </mxGeometry>
        </mxCell>
        <mxCell id="U8TuBQ-byBsgShoGQyeG-66" value="Invest&amp;nbsp;&lt;br&gt;100,000 Baht" style="endArrow=classic;html=1;exitX=0.5;exitY=1;exitDx=0;exitDy=0;strokeColor=#FFFFFF;fontColor=#FFFFFF;labelBackgroundColor=#182E3E;" edge="1" parent="1">
          <mxGeometry width="50" height="50" relative="1" as="geometry">
            <mxPoint x="560.9800000000001" y="362" as="sourcePoint" />
            <mxPoint x="561" y="540" as="targetPoint" />
          </mxGeometry>
        </mxCell>
        <mxCell id="U8TuBQ-byBsgShoGQyeG-67" value="Invest&amp;nbsp;&lt;br&gt;300,000 Baht" style="endArrow=classic;html=1;exitX=0.5;exitY=1;exitDx=0;exitDy=0;strokeColor=#FFFFFF;fontColor=#FFFFFF;labelBackgroundColor=#182E3E;" edge="1" parent="1" source="U8TuBQ-byBsgShoGQyeG-43">
          <mxGeometry width="50" height="50" relative="1" as="geometry">
            <mxPoint x="676.07" y="372" as="sourcePoint" />
            <mxPoint x="675.69" y="590" as="targetPoint" />
          </mxGeometry>
        </mxCell>
        <mxCell id="U8TuBQ-byBsgShoGQyeG-68" value="Invest&amp;nbsp;&lt;br&gt;100,000 Baht" style="endArrow=classic;html=1;exitX=0.5;exitY=1;exitDx=0;exitDy=0;strokeColor=#FFFFFF;fontColor=#FFFFFF;labelBackgroundColor=#182E3E;" edge="1" parent="1">
          <mxGeometry width="50" height="50" relative="1" as="geometry">
            <mxPoint x="802.3800000000001" y="362" as="sourcePoint" />
            <mxPoint x="801" y="540" as="targetPoint" />
          </mxGeometry>
        </mxCell>
        <mxCell id="U8TuBQ-byBsgShoGQyeG-70" value="Invest&amp;nbsp;&lt;br&gt;100,000 Baht" style="endArrow=classic;html=1;exitX=0.5;exitY=1;exitDx=0;exitDy=0;strokeColor=#FFFFFF;fontColor=#FFFFFF;labelBackgroundColor=#182E3E;" edge="1" parent="1">
          <mxGeometry width="50" height="50" relative="1" as="geometry">
            <mxPoint x="960.3800000000001" y="362" as="sourcePoint" />
            <mxPoint x="959" y="540" as="targetPoint" />
          </mxGeometry>
        </mxCell>
        <mxCell id="U8TuBQ-byBsgShoGQyeG-71" value="Invest&amp;nbsp;&lt;br&gt;100,000 Baht" style="endArrow=classic;html=1;exitX=0.5;exitY=1;exitDx=0;exitDy=0;entryX=0.5;entryY=0;entryDx=0;entryDy=0;strokeColor=#FFFFFF;fontColor=#FFFFFF;labelBackgroundColor=#182E3E;" edge="1" parent="1" target="U8TuBQ-byBsgShoGQyeG-89">
          <mxGeometry width="50" height="50" relative="1" as="geometry">
            <mxPoint x="1081.38" y="402" as="sourcePoint" />
            <mxPoint x="1080.98" y="539.9999999999999" as="targetPoint" />
          </mxGeometry>
        </mxCell>
        <mxCell id="U8TuBQ-byBsgShoGQyeG-72" value="1,200,000 THB 3 Years&lt;br&gt;&lt;font style=&quot;font-size: 13px&quot;&gt;OEM&lt;/font&gt;" style="label;whiteSpace=wrap;html=1;align=center;verticalAlign=bottom;spacingLeft=0;spacingBottom=4;imageAlign=center;imageVerticalAlign=top;image=img/clipart/Gear_128x128.png;arcSize=12;fillColor=#EEEEEE;strokeColor=#FFFFFF;fontColor=#1A1A1A;" vertex="1" parent="1">
          <mxGeometry x="493" y="120" width="138" height="81.86" as="geometry" />
        </mxCell>
        <mxCell id="U8TuBQ-byBsgShoGQyeG-76" value="Order&amp;nbsp;&lt;br&gt;5,000,000 per Year" style="html=1;whiteSpace=wrap;container=1;recursiveResize=0;collapsible=0;fillColor=#EEEEEE;strokeColor=#FFFFFF;fontColor=#1A1A1A;" vertex="1" parent="1">
          <mxGeometry x="46.4" y="540" width="123.6" height="40" as="geometry" />
        </mxCell>
        <mxCell id="U8TuBQ-byBsgShoGQyeG-78" value="Order&amp;nbsp;&lt;br&gt;5,000,000 per Year" style="html=1;whiteSpace=wrap;container=1;recursiveResize=0;collapsible=0;fillColor=#EEEEEE;strokeColor=#FFFFFF;fontColor=#1A1A1A;" vertex="1" parent="1">
          <mxGeometry x="134.4" y="590" width="123.6" height="40" as="geometry" />
        </mxCell>
        <mxCell id="U8TuBQ-byBsgShoGQyeG-79" value="Order&amp;nbsp;&lt;br&gt;720,000 per Year" style="html=1;whiteSpace=wrap;container=1;recursiveResize=0;collapsible=0;fillColor=#EEEEEE;strokeColor=#FFFFFF;fontColor=#1A1A1A;" vertex="1" parent="1">
          <mxGeometry x="253.60000000000002" y="540" width="123.6" height="40" as="geometry" />
        </mxCell>
        <mxCell id="U8TuBQ-byBsgShoGQyeG-80" value="Order &lt;br&gt;4,000,000 per Year" style="html=1;whiteSpace=wrap;container=1;recursiveResize=0;collapsible=0;fillColor=#EEEEEE;strokeColor=#FFFFFF;fontColor=#1A1A1A;" vertex="1" parent="1">
          <mxGeometry x="377.20000000000005" y="590" width="123.6" height="40" as="geometry" />
        </mxCell>
        <mxCell id="U8TuBQ-byBsgShoGQyeG-81" value="5,000,000 per Year" style="html=1;whiteSpace=wrap;container=1;recursiveResize=0;collapsible=0;fillColor=#EEEEEE;strokeColor=#FFFFFF;fontColor=#1A1A1A;" vertex="1" parent="1">
          <mxGeometry x="499.20000000000005" y="540" width="123.6" height="40" as="geometry" />
        </mxCell>
        <mxCell id="U8TuBQ-byBsgShoGQyeG-82" value="Order&amp;nbsp;&lt;br&gt;5,000,000 per Year" style="html=1;whiteSpace=wrap;container=1;recursiveResize=0;collapsible=0;fillColor=#EEEEEE;strokeColor=#FFFFFF;fontColor=#1A1A1A;" vertex="1" parent="1">
          <mxGeometry x="614.6" y="590" width="123.6" height="40" as="geometry" />
        </mxCell>
        <mxCell id="U8TuBQ-byBsgShoGQyeG-83" value="Order&amp;nbsp;&lt;br&gt;5,000,000 per Year" style="html=1;whiteSpace=wrap;container=1;recursiveResize=0;collapsible=0;fillColor=#EEEEEE;strokeColor=#FFFFFF;fontColor=#1A1A1A;" vertex="1" parent="1">
          <mxGeometry x="739.6" y="540" width="123.6" height="40" as="geometry" />
        </mxCell>
        <mxCell id="U8TuBQ-byBsgShoGQyeG-88" value="Order&amp;nbsp;&lt;br&gt;5,000,000 per Year" style="html=1;whiteSpace=wrap;container=1;recursiveResize=0;collapsible=0;fillColor=#EEEEEE;strokeColor=#FFFFFF;fontColor=#1A1A1A;" vertex="1" parent="1">
          <mxGeometry x="898.6" y="540" width="123.6" height="40" as="geometry" />
        </mxCell>
        <mxCell id="U8TuBQ-byBsgShoGQyeG-89" value="Order&amp;nbsp;&lt;br&gt;5,000,000 per Year" style="html=1;whiteSpace=wrap;container=1;recursiveResize=0;collapsible=0;fillColor=#EEEEEE;strokeColor=#FFFFFF;fontColor=#1A1A1A;" vertex="1" parent="1">
          <mxGeometry x="1018.4" y="590" width="123.6" height="40" as="geometry" />
        </mxCell>
      </root>
    </mxGraphModel>
  </diagram>
</mxfile>
